<svg width="48" height="48" viewBox="0 0 48 48" fill="none" xmlns="http://www.w3.org/2000/svg">
<g clip-path="url(#clip0_37_8)">
<path d="M24 0.000305176C37.2548 0.000305176 48 10.7455 48 24.0003C47.9998 37.255 37.2547 48.0003 24 48.0003C10.7453 48.0003 0.000164938 37.255 0 24.0003C0 10.7455 10.7452 0.000305176 24 0.000305176ZM35.6357 8.61945C35.3699 8.10725 34.805 7.85094 34.2432 7.98859C31.8523 8.57273 30.0497 9.71178 28.5303 11.8226C25.6268 10.9749 21.1652 10.954 17.6484 12.262C15.7793 10.0928 13.4624 8.97333 10.6055 8.7962C10.0007 8.75895 9.46742 9.15221 9.32617 9.73956C8.79105 11.9685 9.52484 15.8947 10.0635 17.9339C7.87086 20.9726 7.02903 25.2602 7.53809 28.9378C8.1219 33.1572 10.6272 36.079 14.0156 37.8167C13.3117 39.8736 12.7815 42.2717 12.4229 45.012C15.8551 46.9066 19.7995 47.9847 23.9932 47.9847C27.8357 47.9846 31.4683 47.0788 34.6895 45.47C34.6283 42.5413 34.3164 39.7092 33.7549 36.973C41.4111 32.3631 43.1757 22.6656 36.2754 16.0062C36.8217 13.5924 36.7074 10.6873 35.6357 8.61945Z" fill="currentColor"/>
<path d="M31.9746 18.1842C33.5983 18.0865 34.9972 19.167 35.428 20.6508C35.471 20.7998 35.4111 20.9509 35.2771 21.0283C35.1425 21.1056 34.9775 21.0838 34.8667 20.9734C34.1448 20.2551 33.1436 19.8354 32.074 19.8902C31.0136 19.9443 30.097 20.4525 29.4927 21.2159C29.4025 21.3305 29.2502 21.3663 29.1162 21.3038C28.9822 21.2413 28.9097 21.1007 28.9336 20.9516C29.1684 19.4818 30.3762 18.2805 31.9746 18.1842ZM21.4253 18.4387C22.3475 18.3817 23.2113 18.6791 23.9058 19.2168C24.6066 19.7594 25.1368 20.5447 25.3836 21.45C25.433 21.6328 25.3624 21.8184 25.2081 21.9118C25.0537 22.0046 24.8646 21.9758 24.7385 21.8415C23.9114 20.9636 22.7643 20.4483 21.5388 20.5109C20.3311 20.5728 19.2876 21.1864 18.6037 22.1072C18.4993 22.2492 18.328 22.2907 18.1764 22.2134C18.0248 22.1361 17.9395 21.9638 17.9656 21.7867C18.096 20.8968 18.5056 20.0906 19.1035 19.493C19.7064 18.8907 20.5101 18.4956 21.4253 18.4387ZM28.3914 23.9813C28.8871 23.9496 29.3679 23.9187 29.8326 23.8898C29.9863 23.8807 30.1358 24.0073 30.2126 24.2097C30.2895 24.4121 30.2739 24.6328 30.1752 24.7825C29.5569 25.7203 29.162 26.1856 28.7045 26.2425C28.2328 26.3009 27.6772 25.9213 26.6746 25.1298C26.4941 24.9885 26.3932 24.7425 26.4158 24.5014C26.4369 24.2596 26.5801 24.0965 26.7768 24.0838C27.3338 24.048 27.8725 24.0143 28.3914 23.9813ZM28.7129 27.377C28.8299 27.2196 29.0126 27.1865 29.1684 27.2927C29.6627 27.6343 30.0906 27.7552 30.4566 27.673C30.8148 27.5915 31.1983 27.5127 31.5001 27.0411C31.9703 26.3072 32.1008 26.7711 31.8632 27.3609C31.7165 27.7229 31.4387 28.1468 31.0509 28.4279C30.6533 28.7154 30.1252 28.8637 29.4751 28.6367C29.2488 28.558 29.0211 28.61 28.8264 28.7857C28.3738 29.1941 27.8253 29.4226 27.2556 29.4317C26.6598 29.4415 26.0252 29.2145 25.4485 28.6929C24.809 28.1144 24.8125 27.479 25.8517 28.1214C26.4603 28.4996 26.9897 28.3893 27.4523 28.3C27.9028 28.2114 28.3216 27.9035 28.7129 27.377Z" fill="currentColor"/>
<path d="M28.4074 40.3101C27.9272 41.302 26.7596 42.1033 25.75 42.1855C25.64 42.194 25.5413 42.1426 25.4863 42.0471C24.6825 40.651 24.5951 39.1145 24.8623 37.8225C24.8785 37.7445 24.9215 37.6833 24.9899 37.6418C25.059 37.6003 25.133 37.5898 25.2099 37.6116C26.5728 37.9933 27.6043 38.4818 28.3045 39.0772C28.7895 38.4403 29.4587 37.9996 30.3125 37.7564C30.4584 37.7149 30.6107 37.7979 30.6551 37.942C30.9675 38.964 31.0521 40.0613 30.7849 41.0503C30.7461 41.1937 30.5578 41.309 30.3759 41.2612C29.668 41.0763 28.9355 40.722 28.4074 40.3101Z" fill="currentColor"/>
</g>
<defs>
<clipPath id="clip0_37_8">
<rect width="48" height="48" fill="currentColor"/>
</clipPath>
</defs>
</svg>
